<mxfile host="app.diagrams.net" modified="2023-07-25T18:46:07.554Z" agent="Mozilla/5.0 (Windows NT 10.0; Win64; x64) AppleWebKit/537.36 (KHTML, like Gecko) Chrome/114.0.0.0 Safari/537.36" etag="nR0JJGMhQ6qma-JtQk36" version="21.6.5" type="device">
  <diagram name="Page-1" id="Hnr4BT3DM6i87eSuXTA5">
    <mxGraphModel dx="568" dy="292" grid="1" gridSize="10" guides="1" tooltips="1" connect="1" arrows="1" fold="1" page="1" pageScale="1" pageWidth="1169" pageHeight="1654" math="0" shadow="0">
      <root>
        <mxCell id="0" />
        <mxCell id="1" parent="0" />
        <mxCell id="xO2AjzX3wB4_eJEhIPex-1" value="" style="endArrow=classic;html=1;rounded=0;" edge="1" parent="1">
          <mxGeometry width="50" height="50" relative="1" as="geometry">
            <mxPoint x="280" y="380" as="sourcePoint" />
            <mxPoint x="280" y="130" as="targetPoint" />
          </mxGeometry>
        </mxCell>
        <mxCell id="xO2AjzX3wB4_eJEhIPex-8" value="&lt;font style=&quot;font-size: 18px;&quot;&gt;POWER&lt;/font&gt;" style="edgeLabel;html=1;align=center;verticalAlign=middle;resizable=0;points=[];rotation=-90;" vertex="1" connectable="0" parent="xO2AjzX3wB4_eJEhIPex-1">
          <mxGeometry x="0.07" y="-4" relative="1" as="geometry">
            <mxPoint x="-4" y="14" as="offset" />
          </mxGeometry>
        </mxCell>
        <mxCell id="xO2AjzX3wB4_eJEhIPex-3" value="Keep satisfied" style="swimlane;whiteSpace=wrap;html=1;fillColor=#e51400;fontColor=#ffffff;strokeColor=#B20000;" vertex="1" parent="1">
          <mxGeometry x="300" y="150" width="200" height="100" as="geometry" />
        </mxCell>
        <mxCell id="xO2AjzX3wB4_eJEhIPex-10" value="&lt;ul&gt;&lt;li&gt;Bussiness Owner&lt;/li&gt;&lt;li&gt;Investors&lt;/li&gt;&lt;li&gt;developing team&lt;br&gt;&lt;/li&gt;&lt;/ul&gt;" style="text;html=1;align=left;verticalAlign=middle;resizable=0;points=[];autosize=1;strokeColor=none;fillColor=none;" vertex="1" parent="xO2AjzX3wB4_eJEhIPex-3">
          <mxGeometry x="-10" y="13" width="160" height="80" as="geometry" />
        </mxCell>
        <mxCell id="xO2AjzX3wB4_eJEhIPex-4" value="Manage closely" style="swimlane;whiteSpace=wrap;html=1;fillColor=#0050ef;fontColor=#ffffff;strokeColor=#001DBC;" vertex="1" parent="1">
          <mxGeometry x="520" y="150" width="200" height="100" as="geometry" />
        </mxCell>
        <mxCell id="xO2AjzX3wB4_eJEhIPex-15" value="&lt;ul&gt;&lt;li&gt;Clients&lt;/li&gt;&lt;li&gt;sponsers&lt;/li&gt;&lt;/ul&gt;" style="text;html=1;strokeColor=none;fillColor=none;align=left;verticalAlign=middle;whiteSpace=wrap;rounded=0;" vertex="1" parent="xO2AjzX3wB4_eJEhIPex-4">
          <mxGeometry y="38" width="60" height="30" as="geometry" />
        </mxCell>
        <mxCell id="xO2AjzX3wB4_eJEhIPex-5" value="Monitor" style="swimlane;whiteSpace=wrap;html=1;fillColor=#60a917;fontColor=#ffffff;strokeColor=#2D7600;" vertex="1" parent="1">
          <mxGeometry x="300" y="270" width="200" height="90" as="geometry" />
        </mxCell>
        <mxCell id="xO2AjzX3wB4_eJEhIPex-14" value="&lt;ul&gt;&lt;li&gt;compititors&lt;/li&gt;&lt;li&gt;Government&lt;br&gt;&lt;/li&gt;&lt;li&gt;suppliers&lt;br&gt;&lt;/li&gt;&lt;/ul&gt;" style="text;html=1;strokeColor=none;fillColor=none;align=left;verticalAlign=middle;whiteSpace=wrap;rounded=0;" vertex="1" parent="xO2AjzX3wB4_eJEhIPex-5">
          <mxGeometry y="40" width="60" height="30" as="geometry" />
        </mxCell>
        <mxCell id="xO2AjzX3wB4_eJEhIPex-6" value="Keep informed" style="swimlane;whiteSpace=wrap;html=1;fillColor=#e3c800;fontColor=#000000;strokeColor=#B09500;" vertex="1" parent="1">
          <mxGeometry x="520" y="270" width="200" height="90" as="geometry" />
        </mxCell>
        <mxCell id="xO2AjzX3wB4_eJEhIPex-13" value="&lt;ul&gt;&lt;li&gt;stores and markets&lt;/li&gt;&lt;li&gt;Media&lt;/li&gt;&lt;li&gt;financial service providers&lt;/li&gt;&lt;/ul&gt;" style="text;html=1;strokeColor=none;fillColor=none;align=left;verticalAlign=middle;whiteSpace=wrap;rounded=0;" vertex="1" parent="xO2AjzX3wB4_eJEhIPex-6">
          <mxGeometry x="5" y="40" width="190" height="30" as="geometry" />
        </mxCell>
        <mxCell id="xO2AjzX3wB4_eJEhIPex-7" value="" style="endArrow=classic;html=1;rounded=0;" edge="1" parent="1">
          <mxGeometry width="50" height="50" relative="1" as="geometry">
            <mxPoint x="280" y="380" as="sourcePoint" />
            <mxPoint x="750" y="380" as="targetPoint" />
          </mxGeometry>
        </mxCell>
        <mxCell id="xO2AjzX3wB4_eJEhIPex-9" value="&lt;font style=&quot;font-size: 18px;&quot;&gt;Interest&lt;/font&gt;" style="edgeLabel;html=1;align=center;verticalAlign=middle;resizable=0;points=[];" vertex="1" connectable="0" parent="xO2AjzX3wB4_eJEhIPex-7">
          <mxGeometry x="0.0077" y="1" relative="1" as="geometry">
            <mxPoint as="offset" />
          </mxGeometry>
        </mxCell>
        <mxCell id="xO2AjzX3wB4_eJEhIPex-20" value="" style="group" vertex="1" connectable="0" parent="1">
          <mxGeometry x="140" y="580" width="670" height="130" as="geometry" />
        </mxCell>
        <mxCell id="xO2AjzX3wB4_eJEhIPex-18" value="VALUES" style="rounded=0;whiteSpace=wrap;html=1;fillColor=#dae8fc;strokeColor=#6c8ebf;" vertex="1" parent="xO2AjzX3wB4_eJEhIPex-20">
          <mxGeometry width="116.52173913043478" height="130" as="geometry" />
        </mxCell>
        <mxCell id="xO2AjzX3wB4_eJEhIPex-19" value="&lt;ul&gt;&lt;li style=&quot;text-align: left;&quot;&gt;&lt;b&gt;Excellence &lt;/b&gt;means striving to exceed our clients&#39; expectations by providing them with quality services and offering them the best of ourselves, no matter the mandate&lt;/li&gt;&lt;li style=&quot;text-align: left;&quot;&gt;&lt;b&gt;Innovation &lt;/b&gt;means bringing creativity to everything we do and seeking to present our clients witj new information,ideas and strategies with the goal of co-creating sustainable solutions&lt;/li&gt;&lt;li style=&quot;text-align: left;&quot;&gt;&lt;b&gt;Courage &lt;/b&gt;means saying what needs to be said in a respectful way, taking risks, dealing with difficult situations and asing for help when help is needed&lt;/li&gt;&lt;li style=&quot;text-align: left;&quot;&gt;&lt;b&gt;Collabration &lt;/b&gt;means bringing together a unique set of skills and perspectives to produce an outcome which is grater than the sum of its parts&lt;/li&gt;&lt;/ul&gt;" style="rounded=0;whiteSpace=wrap;html=1;fillColor=#fff2cc;strokeColor=#d6b656;" vertex="1" parent="xO2AjzX3wB4_eJEhIPex-20">
          <mxGeometry x="126.23188405797102" width="543.768115942029" height="130" as="geometry" />
        </mxCell>
        <mxCell id="xO2AjzX3wB4_eJEhIPex-21" value="" style="group" vertex="1" connectable="0" parent="1">
          <mxGeometry x="140" y="730" width="670" height="260" as="geometry" />
        </mxCell>
        <mxCell id="xO2AjzX3wB4_eJEhIPex-22" value="BEHAVIOURS" style="rounded=0;whiteSpace=wrap;html=1;fillColor=#dae8fc;strokeColor=#6c8ebf;" vertex="1" parent="xO2AjzX3wB4_eJEhIPex-21">
          <mxGeometry width="116.52173913043478" height="260" as="geometry" />
        </mxCell>
        <mxCell id="xO2AjzX3wB4_eJEhIPex-23" value="&lt;div style=&quot;&quot;&gt;&lt;b style=&quot;background-color: initial;&quot;&gt;Excellence&lt;/b&gt;&lt;/div&gt;&lt;div style=&quot;&quot;&gt;&lt;ul&gt;&lt;li&gt;&lt;span style=&quot;background-color: initial;&quot;&gt;Ask for feedback on our work&lt;/span&gt;&lt;/li&gt;&lt;li&gt;&lt;span style=&quot;background-color: initial;&quot;&gt;Reflect on that was done well and what could be improved&amp;nbsp;&lt;/span&gt;&lt;/li&gt;&lt;li&gt;&lt;span style=&quot;background-color: initial;&quot;&gt;Innovation&lt;/span&gt;&lt;/li&gt;&lt;/ul&gt;&lt;/div&gt;&lt;div style=&quot;&quot;&gt;&lt;span style=&quot;background-color: initial;&quot;&gt;&lt;b&gt;Encourage&amp;nbsp;&lt;/b&gt;&lt;/span&gt;&lt;/div&gt;&lt;div style=&quot;&quot;&gt;&lt;ul&gt;&lt;li&gt;&lt;span style=&quot;background-color: initial;&quot;&gt;experimentation&lt;/span&gt;&lt;/li&gt;&lt;li&gt;&lt;span style=&quot;background-color: initial;&quot;&gt;Question the status quo&lt;/span&gt;&lt;/li&gt;&lt;li&gt;&lt;span style=&quot;background-color: initial;&quot;&gt;Propose new ideas&lt;/span&gt;&lt;/li&gt;&lt;/ul&gt;&lt;div&gt;&lt;b&gt;Courage&lt;/b&gt;&lt;/div&gt;&lt;div&gt;&lt;ul&gt;&lt;li&gt;Allow for healthy conflict and dabate of ideas&amp;nbsp;&lt;/li&gt;&lt;li&gt;Criticize tha behaviour not the person&lt;/li&gt;&lt;/ul&gt;&lt;/div&gt;&lt;/div&gt;" style="rounded=0;whiteSpace=wrap;html=1;align=left;fillColor=#fff2cc;strokeColor=#d6b656;" vertex="1" parent="xO2AjzX3wB4_eJEhIPex-21">
          <mxGeometry x="126.23188405797102" width="543.768115942029" height="260" as="geometry" />
        </mxCell>
        <mxCell id="xO2AjzX3wB4_eJEhIPex-24" value="" style="group" vertex="1" connectable="0" parent="1">
          <mxGeometry x="140" y="1140" width="670" height="130" as="geometry" />
        </mxCell>
        <mxCell id="xO2AjzX3wB4_eJEhIPex-25" value="FUN EVENTS&amp;nbsp;" style="rounded=0;whiteSpace=wrap;html=1;fillColor=#dae8fc;strokeColor=#6c8ebf;" vertex="1" parent="xO2AjzX3wB4_eJEhIPex-24">
          <mxGeometry width="116.52173913043478" height="130" as="geometry" />
        </mxCell>
        <mxCell id="xO2AjzX3wB4_eJEhIPex-26" value="&lt;div style=&quot;&quot;&gt;&lt;span style=&quot;background-color: initial;&quot;&gt;Events the team celebrate Success &amp;amp; Failures&lt;/span&gt;&lt;/div&gt;&lt;div style=&quot;&quot;&gt;&lt;span style=&quot;background-color: initial;&quot;&gt;Use shared ceremonies, parties and fun events for&lt;/span&gt;&lt;/div&gt;&lt;div style=&quot;&quot;&gt;&lt;ul&gt;&lt;li&gt;&lt;span style=&quot;background-color: initial;&quot;&gt;Team Building&lt;/span&gt;&lt;/li&gt;&lt;li&gt;&lt;span style=&quot;background-color: initial;&quot;&gt;Building and strengthening working relationships&lt;/span&gt;&lt;/li&gt;&lt;li&gt;&lt;span style=&quot;background-color: initial;&quot;&gt;individual Relaxing&lt;/span&gt;&lt;/li&gt;&lt;li&gt;&lt;span style=&quot;background-color: initial;&quot;&gt;Building Empathy&lt;/span&gt;&lt;/li&gt;&lt;/ul&gt;&lt;/div&gt;" style="rounded=0;whiteSpace=wrap;html=1;align=left;fillColor=#fff2cc;strokeColor=#d6b656;" vertex="1" parent="xO2AjzX3wB4_eJEhIPex-24">
          <mxGeometry x="126.23188405797102" width="543.768115942029" height="130" as="geometry" />
        </mxCell>
        <mxCell id="xO2AjzX3wB4_eJEhIPex-27" value="" style="group" vertex="1" connectable="0" parent="1">
          <mxGeometry x="140" y="1010" width="670" height="110" as="geometry" />
        </mxCell>
        <mxCell id="xO2AjzX3wB4_eJEhIPex-28" value="NORMS" style="rounded=0;whiteSpace=wrap;html=1;fillColor=#dae8fc;strokeColor=#6c8ebf;" vertex="1" parent="xO2AjzX3wB4_eJEhIPex-27">
          <mxGeometry width="116.52173913043478" height="110" as="geometry" />
        </mxCell>
        <mxCell id="xO2AjzX3wB4_eJEhIPex-29" value="&lt;div style=&quot;text-align: left;&quot;&gt;&lt;ul&gt;&lt;li&gt;&lt;span style=&quot;background-color: initial;&quot;&gt;We will listen to other people&#39;s ideas without judgment&lt;/span&gt;&lt;/li&gt;&lt;li&gt;&lt;span style=&quot;background-color: initial;&quot;&gt;We will turn off all notifications duting our meetings&lt;/span&gt;&lt;/li&gt;&lt;li&gt;&lt;span style=&quot;background-color: initial;&quot;&gt;We will consult our team members before making a decision&lt;/span&gt;&lt;/li&gt;&lt;li&gt;&lt;span style=&quot;background-color: initial;&quot;&gt;Team members in conflict will speak one to one before raising their issues withthe whole team&lt;/span&gt;&lt;/li&gt;&lt;/ul&gt;&lt;/div&gt;" style="rounded=0;whiteSpace=wrap;html=1;fillColor=#fff2cc;strokeColor=#d6b656;" vertex="1" parent="xO2AjzX3wB4_eJEhIPex-27">
          <mxGeometry x="126.23188405797102" width="543.768115942029" height="110" as="geometry" />
        </mxCell>
        <mxCell id="xO2AjzX3wB4_eJEhIPex-37" value="TEAM CHARTER" style="text;html=1;strokeColor=#82b366;fillColor=#d5e8d4;align=center;verticalAlign=middle;whiteSpace=wrap;rounded=0;" vertex="1" parent="1">
          <mxGeometry x="420" y="540" width="140" height="30" as="geometry" />
        </mxCell>
        <mxCell id="xO2AjzX3wB4_eJEhIPex-83" style="edgeStyle=orthogonalEdgeStyle;rounded=0;orthogonalLoop=1;jettySize=auto;html=1;exitX=0.5;exitY=1;exitDx=0;exitDy=0;entryX=0.5;entryY=0;entryDx=0;entryDy=0;" edge="1" parent="1" source="xO2AjzX3wB4_eJEhIPex-38" target="xO2AjzX3wB4_eJEhIPex-39">
          <mxGeometry relative="1" as="geometry" />
        </mxCell>
        <mxCell id="xO2AjzX3wB4_eJEhIPex-84" style="edgeStyle=orthogonalEdgeStyle;rounded=0;orthogonalLoop=1;jettySize=auto;html=1;exitX=0.5;exitY=1;exitDx=0;exitDy=0;entryX=0.5;entryY=0;entryDx=0;entryDy=0;" edge="1" parent="1" source="xO2AjzX3wB4_eJEhIPex-38" target="xO2AjzX3wB4_eJEhIPex-40">
          <mxGeometry relative="1" as="geometry" />
        </mxCell>
        <mxCell id="xO2AjzX3wB4_eJEhIPex-85" style="edgeStyle=orthogonalEdgeStyle;rounded=0;orthogonalLoop=1;jettySize=auto;html=1;exitX=0.5;exitY=1;exitDx=0;exitDy=0;entryX=0.5;entryY=0;entryDx=0;entryDy=0;" edge="1" parent="1" source="xO2AjzX3wB4_eJEhIPex-38" target="xO2AjzX3wB4_eJEhIPex-41">
          <mxGeometry relative="1" as="geometry" />
        </mxCell>
        <mxCell id="xO2AjzX3wB4_eJEhIPex-86" style="edgeStyle=orthogonalEdgeStyle;rounded=0;orthogonalLoop=1;jettySize=auto;html=1;exitX=0.5;exitY=1;exitDx=0;exitDy=0;" edge="1" parent="1" source="xO2AjzX3wB4_eJEhIPex-38" target="xO2AjzX3wB4_eJEhIPex-42">
          <mxGeometry relative="1" as="geometry" />
        </mxCell>
        <mxCell id="xO2AjzX3wB4_eJEhIPex-38" value="Work Break Down Structure" style="text;html=1;strokeColor=#d6b656;fillColor=#fff2cc;align=center;verticalAlign=middle;whiteSpace=wrap;rounded=0;" vertex="1" parent="1">
          <mxGeometry x="520" y="1700" width="170" height="30" as="geometry" />
        </mxCell>
        <mxCell id="xO2AjzX3wB4_eJEhIPex-46" style="edgeStyle=orthogonalEdgeStyle;rounded=1;orthogonalLoop=1;jettySize=auto;html=1;exitX=0.25;exitY=1;exitDx=0;exitDy=0;entryX=0;entryY=0.5;entryDx=0;entryDy=0;" edge="1" parent="1" source="xO2AjzX3wB4_eJEhIPex-39" target="xO2AjzX3wB4_eJEhIPex-45">
          <mxGeometry relative="1" as="geometry" />
        </mxCell>
        <mxCell id="xO2AjzX3wB4_eJEhIPex-48" style="edgeStyle=orthogonalEdgeStyle;orthogonalLoop=1;jettySize=auto;html=1;exitX=0.25;exitY=1;exitDx=0;exitDy=0;entryX=0;entryY=0.5;entryDx=0;entryDy=0;rounded=1;" edge="1" parent="1" source="xO2AjzX3wB4_eJEhIPex-39" target="xO2AjzX3wB4_eJEhIPex-47">
          <mxGeometry relative="1" as="geometry" />
        </mxCell>
        <mxCell id="xO2AjzX3wB4_eJEhIPex-50" style="edgeStyle=orthogonalEdgeStyle;rounded=1;orthogonalLoop=1;jettySize=auto;html=1;exitX=0.25;exitY=1;exitDx=0;exitDy=0;entryX=0;entryY=0.5;entryDx=0;entryDy=0;" edge="1" parent="1" source="xO2AjzX3wB4_eJEhIPex-39" target="xO2AjzX3wB4_eJEhIPex-49">
          <mxGeometry relative="1" as="geometry" />
        </mxCell>
        <mxCell id="xO2AjzX3wB4_eJEhIPex-55" style="edgeStyle=orthogonalEdgeStyle;rounded=1;orthogonalLoop=1;jettySize=auto;html=1;exitX=0.25;exitY=1;exitDx=0;exitDy=0;entryX=0;entryY=0.5;entryDx=0;entryDy=0;" edge="1" parent="1" source="xO2AjzX3wB4_eJEhIPex-39" target="xO2AjzX3wB4_eJEhIPex-51">
          <mxGeometry relative="1" as="geometry" />
        </mxCell>
        <mxCell id="xO2AjzX3wB4_eJEhIPex-56" style="edgeStyle=orthogonalEdgeStyle;rounded=1;orthogonalLoop=1;jettySize=auto;html=1;exitX=0.25;exitY=1;exitDx=0;exitDy=0;entryX=0;entryY=0.5;entryDx=0;entryDy=0;" edge="1" parent="1" source="xO2AjzX3wB4_eJEhIPex-39" target="xO2AjzX3wB4_eJEhIPex-54">
          <mxGeometry relative="1" as="geometry" />
        </mxCell>
        <mxCell id="xO2AjzX3wB4_eJEhIPex-57" style="edgeStyle=orthogonalEdgeStyle;rounded=1;orthogonalLoop=1;jettySize=auto;html=1;exitX=0.25;exitY=1;exitDx=0;exitDy=0;entryX=0;entryY=0.5;entryDx=0;entryDy=0;" edge="1" parent="1" source="xO2AjzX3wB4_eJEhIPex-39" target="xO2AjzX3wB4_eJEhIPex-53">
          <mxGeometry relative="1" as="geometry" />
        </mxCell>
        <mxCell id="xO2AjzX3wB4_eJEhIPex-58" style="edgeStyle=orthogonalEdgeStyle;rounded=1;orthogonalLoop=1;jettySize=auto;html=1;exitX=0.25;exitY=1;exitDx=0;exitDy=0;entryX=0;entryY=0.5;entryDx=0;entryDy=0;" edge="1" parent="1" source="xO2AjzX3wB4_eJEhIPex-39" target="xO2AjzX3wB4_eJEhIPex-52">
          <mxGeometry relative="1" as="geometry" />
        </mxCell>
        <mxCell id="xO2AjzX3wB4_eJEhIPex-39" value="Project Managment" style="rounded=0;whiteSpace=wrap;html=1;fillColor=#ffe6cc;strokeColor=#d79b00;" vertex="1" parent="1">
          <mxGeometry x="130" y="1780" width="120" height="60" as="geometry" />
        </mxCell>
        <mxCell id="xO2AjzX3wB4_eJEhIPex-67" style="edgeStyle=orthogonalEdgeStyle;rounded=0;orthogonalLoop=1;jettySize=auto;html=1;exitX=0.25;exitY=1;exitDx=0;exitDy=0;entryX=0;entryY=0.5;entryDx=0;entryDy=0;" edge="1" parent="1" source="xO2AjzX3wB4_eJEhIPex-40" target="xO2AjzX3wB4_eJEhIPex-59">
          <mxGeometry relative="1" as="geometry" />
        </mxCell>
        <mxCell id="xO2AjzX3wB4_eJEhIPex-68" style="edgeStyle=orthogonalEdgeStyle;rounded=0;orthogonalLoop=1;jettySize=auto;html=1;exitX=0.25;exitY=1;exitDx=0;exitDy=0;entryX=0;entryY=0.5;entryDx=0;entryDy=0;" edge="1" parent="1" source="xO2AjzX3wB4_eJEhIPex-40" target="xO2AjzX3wB4_eJEhIPex-60">
          <mxGeometry relative="1" as="geometry" />
        </mxCell>
        <mxCell id="xO2AjzX3wB4_eJEhIPex-69" style="edgeStyle=orthogonalEdgeStyle;rounded=0;orthogonalLoop=1;jettySize=auto;html=1;exitX=0.25;exitY=1;exitDx=0;exitDy=0;entryX=0;entryY=0.5;entryDx=0;entryDy=0;" edge="1" parent="1" source="xO2AjzX3wB4_eJEhIPex-40" target="xO2AjzX3wB4_eJEhIPex-63">
          <mxGeometry relative="1" as="geometry" />
        </mxCell>
        <mxCell id="xO2AjzX3wB4_eJEhIPex-70" style="edgeStyle=orthogonalEdgeStyle;rounded=0;orthogonalLoop=1;jettySize=auto;html=1;exitX=0.25;exitY=1;exitDx=0;exitDy=0;entryX=0;entryY=0.5;entryDx=0;entryDy=0;" edge="1" parent="1" source="xO2AjzX3wB4_eJEhIPex-40" target="xO2AjzX3wB4_eJEhIPex-64">
          <mxGeometry relative="1" as="geometry" />
        </mxCell>
        <mxCell id="xO2AjzX3wB4_eJEhIPex-71" style="edgeStyle=orthogonalEdgeStyle;rounded=0;orthogonalLoop=1;jettySize=auto;html=1;exitX=0.25;exitY=1;exitDx=0;exitDy=0;entryX=0;entryY=0.5;entryDx=0;entryDy=0;" edge="1" parent="1" source="xO2AjzX3wB4_eJEhIPex-40" target="xO2AjzX3wB4_eJEhIPex-65">
          <mxGeometry relative="1" as="geometry" />
        </mxCell>
        <mxCell id="xO2AjzX3wB4_eJEhIPex-72" style="edgeStyle=orthogonalEdgeStyle;rounded=0;orthogonalLoop=1;jettySize=auto;html=1;exitX=0.25;exitY=1;exitDx=0;exitDy=0;entryX=0;entryY=0.5;entryDx=0;entryDy=0;" edge="1" parent="1" source="xO2AjzX3wB4_eJEhIPex-40" target="xO2AjzX3wB4_eJEhIPex-66">
          <mxGeometry relative="1" as="geometry" />
        </mxCell>
        <mxCell id="xO2AjzX3wB4_eJEhIPex-40" value="Design &amp;amp; Analysis" style="rounded=0;whiteSpace=wrap;html=1;fillColor=#d5e8d4;strokeColor=#82b366;" vertex="1" parent="1">
          <mxGeometry x="415" y="1780" width="120" height="60" as="geometry" />
        </mxCell>
        <mxCell id="xO2AjzX3wB4_eJEhIPex-78" style="edgeStyle=orthogonalEdgeStyle;rounded=0;orthogonalLoop=1;jettySize=auto;html=1;exitX=0.25;exitY=1;exitDx=0;exitDy=0;entryX=0;entryY=0.75;entryDx=0;entryDy=0;" edge="1" parent="1" source="xO2AjzX3wB4_eJEhIPex-41" target="xO2AjzX3wB4_eJEhIPex-73">
          <mxGeometry relative="1" as="geometry" />
        </mxCell>
        <mxCell id="xO2AjzX3wB4_eJEhIPex-79" style="edgeStyle=orthogonalEdgeStyle;rounded=0;orthogonalLoop=1;jettySize=auto;html=1;exitX=0.25;exitY=1;exitDx=0;exitDy=0;entryX=0;entryY=0.5;entryDx=0;entryDy=0;" edge="1" parent="1" source="xO2AjzX3wB4_eJEhIPex-41" target="xO2AjzX3wB4_eJEhIPex-74">
          <mxGeometry relative="1" as="geometry" />
        </mxCell>
        <mxCell id="xO2AjzX3wB4_eJEhIPex-80" style="edgeStyle=orthogonalEdgeStyle;rounded=0;orthogonalLoop=1;jettySize=auto;html=1;exitX=0.25;exitY=1;exitDx=0;exitDy=0;entryX=0;entryY=0.5;entryDx=0;entryDy=0;" edge="1" parent="1" source="xO2AjzX3wB4_eJEhIPex-41" target="xO2AjzX3wB4_eJEhIPex-75">
          <mxGeometry relative="1" as="geometry" />
        </mxCell>
        <mxCell id="xO2AjzX3wB4_eJEhIPex-81" style="edgeStyle=orthogonalEdgeStyle;rounded=0;orthogonalLoop=1;jettySize=auto;html=1;exitX=0.25;exitY=1;exitDx=0;exitDy=0;entryX=0;entryY=0.5;entryDx=0;entryDy=0;" edge="1" parent="1" source="xO2AjzX3wB4_eJEhIPex-41" target="xO2AjzX3wB4_eJEhIPex-76">
          <mxGeometry relative="1" as="geometry" />
        </mxCell>
        <mxCell id="xO2AjzX3wB4_eJEhIPex-82" style="edgeStyle=orthogonalEdgeStyle;rounded=0;orthogonalLoop=1;jettySize=auto;html=1;exitX=0.25;exitY=1;exitDx=0;exitDy=0;entryX=0;entryY=0.5;entryDx=0;entryDy=0;" edge="1" parent="1" source="xO2AjzX3wB4_eJEhIPex-41" target="xO2AjzX3wB4_eJEhIPex-77">
          <mxGeometry relative="1" as="geometry" />
        </mxCell>
        <mxCell id="xO2AjzX3wB4_eJEhIPex-41" value="Development" style="rounded=0;whiteSpace=wrap;html=1;fillColor=#dae8fc;strokeColor=#6c8ebf;" vertex="1" parent="1">
          <mxGeometry x="670" y="1780" width="120" height="60" as="geometry" />
        </mxCell>
        <mxCell id="xO2AjzX3wB4_eJEhIPex-94" style="edgeStyle=orthogonalEdgeStyle;rounded=0;orthogonalLoop=1;jettySize=auto;html=1;exitX=0.25;exitY=1;exitDx=0;exitDy=0;entryX=0;entryY=0.5;entryDx=0;entryDy=0;" edge="1" parent="1" source="xO2AjzX3wB4_eJEhIPex-42" target="xO2AjzX3wB4_eJEhIPex-88">
          <mxGeometry relative="1" as="geometry" />
        </mxCell>
        <mxCell id="xO2AjzX3wB4_eJEhIPex-95" style="edgeStyle=orthogonalEdgeStyle;rounded=0;orthogonalLoop=1;jettySize=auto;html=1;exitX=0.25;exitY=1;exitDx=0;exitDy=0;entryX=0;entryY=0.5;entryDx=0;entryDy=0;" edge="1" parent="1" source="xO2AjzX3wB4_eJEhIPex-42" target="xO2AjzX3wB4_eJEhIPex-87">
          <mxGeometry relative="1" as="geometry" />
        </mxCell>
        <mxCell id="xO2AjzX3wB4_eJEhIPex-96" style="edgeStyle=orthogonalEdgeStyle;rounded=0;orthogonalLoop=1;jettySize=auto;html=1;exitX=0.25;exitY=1;exitDx=0;exitDy=0;entryX=0;entryY=0.5;entryDx=0;entryDy=0;" edge="1" parent="1" source="xO2AjzX3wB4_eJEhIPex-42" target="xO2AjzX3wB4_eJEhIPex-89">
          <mxGeometry relative="1" as="geometry" />
        </mxCell>
        <mxCell id="xO2AjzX3wB4_eJEhIPex-97" style="edgeStyle=orthogonalEdgeStyle;rounded=0;orthogonalLoop=1;jettySize=auto;html=1;exitX=0.25;exitY=1;exitDx=0;exitDy=0;entryX=0;entryY=0.5;entryDx=0;entryDy=0;" edge="1" parent="1" source="xO2AjzX3wB4_eJEhIPex-42" target="xO2AjzX3wB4_eJEhIPex-90">
          <mxGeometry relative="1" as="geometry" />
        </mxCell>
        <mxCell id="xO2AjzX3wB4_eJEhIPex-98" style="edgeStyle=orthogonalEdgeStyle;rounded=0;orthogonalLoop=1;jettySize=auto;html=1;exitX=0.25;exitY=1;exitDx=0;exitDy=0;entryX=0;entryY=0.5;entryDx=0;entryDy=0;" edge="1" parent="1" source="xO2AjzX3wB4_eJEhIPex-42" target="xO2AjzX3wB4_eJEhIPex-92">
          <mxGeometry relative="1" as="geometry" />
        </mxCell>
        <mxCell id="xO2AjzX3wB4_eJEhIPex-99" style="edgeStyle=orthogonalEdgeStyle;rounded=0;orthogonalLoop=1;jettySize=auto;html=1;exitX=0.25;exitY=1;exitDx=0;exitDy=0;entryX=0;entryY=0.5;entryDx=0;entryDy=0;" edge="1" parent="1" source="xO2AjzX3wB4_eJEhIPex-42" target="xO2AjzX3wB4_eJEhIPex-93">
          <mxGeometry relative="1" as="geometry" />
        </mxCell>
        <mxCell id="xO2AjzX3wB4_eJEhIPex-42" value="Testing &amp;amp; Deployment" style="rounded=0;whiteSpace=wrap;html=1;fillColor=#f5f5f5;fontColor=#333333;strokeColor=#666666;" vertex="1" parent="1">
          <mxGeometry x="900" y="1780" width="130" height="60" as="geometry" />
        </mxCell>
        <mxCell id="xO2AjzX3wB4_eJEhIPex-45" value="identify stackholders" style="rounded=1;whiteSpace=wrap;html=1;fillColor=#ffe6cc;strokeColor=#d79b00;" vertex="1" parent="1">
          <mxGeometry x="210" y="1860" width="120" height="30" as="geometry" />
        </mxCell>
        <mxCell id="xO2AjzX3wB4_eJEhIPex-47" value="stackholder engagment" style="rounded=1;whiteSpace=wrap;html=1;fillColor=#ffe6cc;strokeColor=#d79b00;" vertex="1" parent="1">
          <mxGeometry x="210" y="1900" width="120" height="30" as="geometry" />
        </mxCell>
        <mxCell id="xO2AjzX3wB4_eJEhIPex-49" value="create team charter" style="rounded=1;whiteSpace=wrap;html=1;fillColor=#ffe6cc;strokeColor=#d79b00;" vertex="1" parent="1">
          <mxGeometry x="210" y="1940" width="120" height="30" as="geometry" />
        </mxCell>
        <mxCell id="xO2AjzX3wB4_eJEhIPex-51" value="project planning" style="rounded=1;whiteSpace=wrap;html=1;fillColor=#ffe6cc;strokeColor=#d79b00;" vertex="1" parent="1">
          <mxGeometry x="210" y="1980" width="120" height="30" as="geometry" />
        </mxCell>
        <mxCell id="xO2AjzX3wB4_eJEhIPex-52" value="Risk Managment" style="rounded=1;whiteSpace=wrap;html=1;fillColor=#ffe6cc;strokeColor=#d79b00;" vertex="1" parent="1">
          <mxGeometry x="210" y="2100" width="120" height="30" as="geometry" />
        </mxCell>
        <mxCell id="xO2AjzX3wB4_eJEhIPex-53" value="project scheduling" style="rounded=1;whiteSpace=wrap;html=1;fillColor=#ffe6cc;strokeColor=#d79b00;" vertex="1" parent="1">
          <mxGeometry x="210" y="2060" width="120" height="30" as="geometry" />
        </mxCell>
        <mxCell id="xO2AjzX3wB4_eJEhIPex-54" value="project estimition" style="rounded=1;whiteSpace=wrap;html=1;fillColor=#ffe6cc;strokeColor=#d79b00;" vertex="1" parent="1">
          <mxGeometry x="210" y="2020" width="120" height="30" as="geometry" />
        </mxCell>
        <mxCell id="xO2AjzX3wB4_eJEhIPex-59" value="interviews" style="rounded=1;whiteSpace=wrap;html=1;fillColor=#d5e8d4;strokeColor=#82b366;" vertex="1" parent="1">
          <mxGeometry x="465" y="1860" width="120" height="30" as="geometry" />
        </mxCell>
        <mxCell id="xO2AjzX3wB4_eJEhIPex-60" value="define needs" style="rounded=1;whiteSpace=wrap;html=1;fillColor=#d5e8d4;strokeColor=#82b366;" vertex="1" parent="1">
          <mxGeometry x="465" y="1910" width="120" height="30" as="geometry" />
        </mxCell>
        <mxCell id="xO2AjzX3wB4_eJEhIPex-63" value="report resources" style="rounded=1;whiteSpace=wrap;html=1;fillColor=#d5e8d4;strokeColor=#82b366;" vertex="1" parent="1">
          <mxGeometry x="465" y="1960" width="120" height="30" as="geometry" />
        </mxCell>
        <mxCell id="xO2AjzX3wB4_eJEhIPex-64" value="software diagrams" style="rounded=1;whiteSpace=wrap;html=1;fillColor=#d5e8d4;strokeColor=#82b366;" vertex="1" parent="1">
          <mxGeometry x="465" y="2010" width="120" height="30" as="geometry" />
        </mxCell>
        <mxCell id="xO2AjzX3wB4_eJEhIPex-65" value="high level design" style="rounded=1;whiteSpace=wrap;html=1;fillColor=#d5e8d4;strokeColor=#82b366;" vertex="1" parent="1">
          <mxGeometry x="465" y="2060" width="120" height="30" as="geometry" />
        </mxCell>
        <mxCell id="xO2AjzX3wB4_eJEhIPex-66" value="low level design" style="rounded=1;whiteSpace=wrap;html=1;fillColor=#d5e8d4;strokeColor=#82b366;" vertex="1" parent="1">
          <mxGeometry x="465" y="2110" width="120" height="30" as="geometry" />
        </mxCell>
        <mxCell id="xO2AjzX3wB4_eJEhIPex-73" value="graphics and interfaces" style="rounded=1;whiteSpace=wrap;html=1;fillColor=#dae8fc;strokeColor=#6c8ebf;" vertex="1" parent="1">
          <mxGeometry x="720" y="1860" width="130" height="30" as="geometry" />
        </mxCell>
        <mxCell id="xO2AjzX3wB4_eJEhIPex-74" value="Content creation" style="rounded=1;whiteSpace=wrap;html=1;fillColor=#dae8fc;strokeColor=#6c8ebf;" vertex="1" parent="1">
          <mxGeometry x="720" y="1910" width="130" height="30" as="geometry" />
        </mxCell>
        <mxCell id="xO2AjzX3wB4_eJEhIPex-75" value="database implementation" style="rounded=1;whiteSpace=wrap;html=1;fillColor=#dae8fc;strokeColor=#6c8ebf;" vertex="1" parent="1">
          <mxGeometry x="720" y="1960" width="130" height="30" as="geometry" />
        </mxCell>
        <mxCell id="xO2AjzX3wB4_eJEhIPex-76" value="transaction proceeding" style="rounded=1;whiteSpace=wrap;html=1;fillColor=#dae8fc;strokeColor=#6c8ebf;" vertex="1" parent="1">
          <mxGeometry x="720" y="2010" width="130" height="30" as="geometry" />
        </mxCell>
        <mxCell id="xO2AjzX3wB4_eJEhIPex-77" value="security checking" style="rounded=1;whiteSpace=wrap;html=1;fillColor=#dae8fc;strokeColor=#6c8ebf;" vertex="1" parent="1">
          <mxGeometry x="720" y="2060" width="130" height="30" as="geometry" />
        </mxCell>
        <mxCell id="xO2AjzX3wB4_eJEhIPex-87" value="unit testing" style="rounded=1;whiteSpace=wrap;html=1;fillColor=#f5f5f5;fontColor=#333333;strokeColor=#666666;" vertex="1" parent="1">
          <mxGeometry x="980" y="1910" width="130" height="30" as="geometry" />
        </mxCell>
        <mxCell id="xO2AjzX3wB4_eJEhIPex-88" value="test configuration" style="rounded=1;whiteSpace=wrap;html=1;fillColor=#f5f5f5;fontColor=#333333;strokeColor=#666666;" vertex="1" parent="1">
          <mxGeometry x="980" y="1860" width="130" height="30" as="geometry" />
        </mxCell>
        <mxCell id="xO2AjzX3wB4_eJEhIPex-89" value="Acceptance testing" style="rounded=1;whiteSpace=wrap;html=1;fillColor=#f5f5f5;fontColor=#333333;strokeColor=#666666;" vertex="1" parent="1">
          <mxGeometry x="980" y="1960" width="130" height="30" as="geometry" />
        </mxCell>
        <mxCell id="xO2AjzX3wB4_eJEhIPex-90" value="Releasing App" style="rounded=1;whiteSpace=wrap;html=1;fillColor=#f5f5f5;fontColor=#333333;strokeColor=#666666;" vertex="1" parent="1">
          <mxGeometry x="980" y="2010" width="130" height="30" as="geometry" />
        </mxCell>
        <mxCell id="xO2AjzX3wB4_eJEhIPex-92" value="Client Feedback" style="rounded=1;whiteSpace=wrap;html=1;fillColor=#f5f5f5;fontColor=#333333;strokeColor=#666666;" vertex="1" parent="1">
          <mxGeometry x="980" y="2060" width="130" height="30" as="geometry" />
        </mxCell>
        <mxCell id="xO2AjzX3wB4_eJEhIPex-93" value="Closing project" style="rounded=1;whiteSpace=wrap;html=1;fillColor=#f5f5f5;fontColor=#333333;strokeColor=#666666;" vertex="1" parent="1">
          <mxGeometry x="980" y="2120" width="130" height="30" as="geometry" />
        </mxCell>
        <mxCell id="xO2AjzX3wB4_eJEhIPex-109" value="" style="group" vertex="1" connectable="0" parent="1">
          <mxGeometry x="110" y="2360" width="180" height="160" as="geometry" />
        </mxCell>
        <mxCell id="xO2AjzX3wB4_eJEhIPex-100" value="A" style="rounded=0;whiteSpace=wrap;html=1;" vertex="1" parent="xO2AjzX3wB4_eJEhIPex-109">
          <mxGeometry y="60" width="180" height="60" as="geometry" />
        </mxCell>
        <mxCell id="xO2AjzX3wB4_eJEhIPex-104" value="" style="group" vertex="1" connectable="0" parent="xO2AjzX3wB4_eJEhIPex-109">
          <mxGeometry width="180" height="60" as="geometry" />
        </mxCell>
        <mxCell id="xO2AjzX3wB4_eJEhIPex-101" value="1" style="rounded=0;whiteSpace=wrap;html=1;" vertex="1" parent="xO2AjzX3wB4_eJEhIPex-104">
          <mxGeometry y="20" width="60" height="40" as="geometry" />
        </mxCell>
        <mxCell id="xO2AjzX3wB4_eJEhIPex-102" value="3" style="rounded=0;whiteSpace=wrap;html=1;" vertex="1" parent="xO2AjzX3wB4_eJEhIPex-104">
          <mxGeometry x="60" y="20" width="60" height="40" as="geometry" />
        </mxCell>
        <mxCell id="xO2AjzX3wB4_eJEhIPex-103" value="3" style="rounded=0;whiteSpace=wrap;html=1;" vertex="1" parent="xO2AjzX3wB4_eJEhIPex-104">
          <mxGeometry x="120" y="20" width="60" height="40" as="geometry" />
        </mxCell>
        <mxCell id="xO2AjzX3wB4_eJEhIPex-105" value="" style="group" vertex="1" connectable="0" parent="xO2AjzX3wB4_eJEhIPex-109">
          <mxGeometry y="120" width="180" height="40" as="geometry" />
        </mxCell>
        <mxCell id="xO2AjzX3wB4_eJEhIPex-106" value="1" style="rounded=0;whiteSpace=wrap;html=1;" vertex="1" parent="xO2AjzX3wB4_eJEhIPex-105">
          <mxGeometry width="60" height="40" as="geometry" />
        </mxCell>
        <mxCell id="xO2AjzX3wB4_eJEhIPex-107" value="0" style="rounded=0;whiteSpace=wrap;html=1;" vertex="1" parent="xO2AjzX3wB4_eJEhIPex-105">
          <mxGeometry x="60" width="60" height="40" as="geometry" />
        </mxCell>
        <mxCell id="xO2AjzX3wB4_eJEhIPex-108" value="3" style="rounded=0;whiteSpace=wrap;html=1;" vertex="1" parent="xO2AjzX3wB4_eJEhIPex-105">
          <mxGeometry x="120" width="60" height="40" as="geometry" />
        </mxCell>
        <mxCell id="xO2AjzX3wB4_eJEhIPex-110" value="" style="group" vertex="1" connectable="0" parent="1">
          <mxGeometry x="370" y="2210" width="180" height="160" as="geometry" />
        </mxCell>
        <mxCell id="xO2AjzX3wB4_eJEhIPex-111" value="B" style="rounded=0;whiteSpace=wrap;html=1;" vertex="1" parent="xO2AjzX3wB4_eJEhIPex-110">
          <mxGeometry y="60" width="180" height="60" as="geometry" />
        </mxCell>
        <mxCell id="xO2AjzX3wB4_eJEhIPex-112" value="" style="group" vertex="1" connectable="0" parent="xO2AjzX3wB4_eJEhIPex-110">
          <mxGeometry width="180" height="60" as="geometry" />
        </mxCell>
        <mxCell id="xO2AjzX3wB4_eJEhIPex-113" value="4" style="rounded=0;whiteSpace=wrap;html=1;" vertex="1" parent="xO2AjzX3wB4_eJEhIPex-112">
          <mxGeometry y="20" width="60" height="40" as="geometry" />
        </mxCell>
        <mxCell id="xO2AjzX3wB4_eJEhIPex-114" value="4" style="rounded=0;whiteSpace=wrap;html=1;" vertex="1" parent="xO2AjzX3wB4_eJEhIPex-112">
          <mxGeometry x="60" y="20" width="60" height="40" as="geometry" />
        </mxCell>
        <mxCell id="xO2AjzX3wB4_eJEhIPex-115" value="7" style="rounded=0;whiteSpace=wrap;html=1;" vertex="1" parent="xO2AjzX3wB4_eJEhIPex-112">
          <mxGeometry x="120" y="20" width="60" height="40" as="geometry" />
        </mxCell>
        <mxCell id="xO2AjzX3wB4_eJEhIPex-116" value="" style="group" vertex="1" connectable="0" parent="xO2AjzX3wB4_eJEhIPex-110">
          <mxGeometry y="120" width="180" height="40" as="geometry" />
        </mxCell>
        <mxCell id="xO2AjzX3wB4_eJEhIPex-117" value="4" style="rounded=0;whiteSpace=wrap;html=1;" vertex="1" parent="xO2AjzX3wB4_eJEhIPex-116">
          <mxGeometry width="60" height="40" as="geometry" />
        </mxCell>
        <mxCell id="xO2AjzX3wB4_eJEhIPex-118" value="0" style="rounded=0;whiteSpace=wrap;html=1;" vertex="1" parent="xO2AjzX3wB4_eJEhIPex-116">
          <mxGeometry x="60" width="60" height="40" as="geometry" />
        </mxCell>
        <mxCell id="xO2AjzX3wB4_eJEhIPex-119" value="7" style="rounded=0;whiteSpace=wrap;html=1;" vertex="1" parent="xO2AjzX3wB4_eJEhIPex-116">
          <mxGeometry x="120" width="60" height="40" as="geometry" />
        </mxCell>
        <mxCell id="xO2AjzX3wB4_eJEhIPex-120" value="" style="group" vertex="1" connectable="0" parent="1">
          <mxGeometry x="360" y="2500" width="180" height="160" as="geometry" />
        </mxCell>
        <mxCell id="xO2AjzX3wB4_eJEhIPex-121" value="C" style="rounded=0;whiteSpace=wrap;html=1;" vertex="1" parent="xO2AjzX3wB4_eJEhIPex-120">
          <mxGeometry y="60" width="180" height="60" as="geometry" />
        </mxCell>
        <mxCell id="xO2AjzX3wB4_eJEhIPex-122" value="" style="group" vertex="1" connectable="0" parent="xO2AjzX3wB4_eJEhIPex-120">
          <mxGeometry width="180" height="60" as="geometry" />
        </mxCell>
        <mxCell id="xO2AjzX3wB4_eJEhIPex-123" value="4" style="rounded=0;whiteSpace=wrap;html=1;" vertex="1" parent="xO2AjzX3wB4_eJEhIPex-122">
          <mxGeometry y="20" width="60" height="40" as="geometry" />
        </mxCell>
        <mxCell id="xO2AjzX3wB4_eJEhIPex-124" value="2" style="rounded=0;whiteSpace=wrap;html=1;" vertex="1" parent="xO2AjzX3wB4_eJEhIPex-122">
          <mxGeometry x="60" y="20" width="60" height="40" as="geometry" />
        </mxCell>
        <mxCell id="xO2AjzX3wB4_eJEhIPex-125" value="5" style="rounded=0;whiteSpace=wrap;html=1;" vertex="1" parent="xO2AjzX3wB4_eJEhIPex-122">
          <mxGeometry x="120" y="20" width="60" height="40" as="geometry" />
        </mxCell>
        <mxCell id="xO2AjzX3wB4_eJEhIPex-126" value="" style="group" vertex="1" connectable="0" parent="xO2AjzX3wB4_eJEhIPex-120">
          <mxGeometry y="120" width="180" height="40" as="geometry" />
        </mxCell>
        <mxCell id="xO2AjzX3wB4_eJEhIPex-127" value="10" style="rounded=0;whiteSpace=wrap;html=1;" vertex="1" parent="xO2AjzX3wB4_eJEhIPex-126">
          <mxGeometry width="60" height="40" as="geometry" />
        </mxCell>
        <mxCell id="xO2AjzX3wB4_eJEhIPex-128" value="6" style="rounded=0;whiteSpace=wrap;html=1;" vertex="1" parent="xO2AjzX3wB4_eJEhIPex-126">
          <mxGeometry x="60" width="60" height="40" as="geometry" />
        </mxCell>
        <mxCell id="xO2AjzX3wB4_eJEhIPex-129" value="11" style="rounded=0;whiteSpace=wrap;html=1;" vertex="1" parent="xO2AjzX3wB4_eJEhIPex-126">
          <mxGeometry x="120" width="60" height="40" as="geometry" />
        </mxCell>
        <mxCell id="xO2AjzX3wB4_eJEhIPex-130" value="" style="group" vertex="1" connectable="0" parent="1">
          <mxGeometry x="630" y="2210" width="180" height="160" as="geometry" />
        </mxCell>
        <mxCell id="xO2AjzX3wB4_eJEhIPex-131" value="D" style="rounded=0;whiteSpace=wrap;html=1;" vertex="1" parent="xO2AjzX3wB4_eJEhIPex-130">
          <mxGeometry y="60" width="180" height="60" as="geometry" />
        </mxCell>
        <mxCell id="xO2AjzX3wB4_eJEhIPex-132" value="" style="group" vertex="1" connectable="0" parent="xO2AjzX3wB4_eJEhIPex-130">
          <mxGeometry width="180" height="60" as="geometry" />
        </mxCell>
        <mxCell id="xO2AjzX3wB4_eJEhIPex-133" value="8" style="rounded=0;whiteSpace=wrap;html=1;" vertex="1" parent="xO2AjzX3wB4_eJEhIPex-132">
          <mxGeometry y="20" width="60" height="40" as="geometry" />
        </mxCell>
        <mxCell id="xO2AjzX3wB4_eJEhIPex-134" value="5" style="rounded=0;whiteSpace=wrap;html=1;" vertex="1" parent="xO2AjzX3wB4_eJEhIPex-132">
          <mxGeometry x="60" y="20" width="60" height="40" as="geometry" />
        </mxCell>
        <mxCell id="xO2AjzX3wB4_eJEhIPex-135" value="12" style="rounded=0;whiteSpace=wrap;html=1;" vertex="1" parent="xO2AjzX3wB4_eJEhIPex-132">
          <mxGeometry x="120" y="20" width="60" height="40" as="geometry" />
        </mxCell>
        <mxCell id="xO2AjzX3wB4_eJEhIPex-136" value="" style="group" vertex="1" connectable="0" parent="xO2AjzX3wB4_eJEhIPex-130">
          <mxGeometry y="120" width="180" height="40" as="geometry" />
        </mxCell>
        <mxCell id="xO2AjzX3wB4_eJEhIPex-137" value="8" style="rounded=0;whiteSpace=wrap;html=1;" vertex="1" parent="xO2AjzX3wB4_eJEhIPex-136">
          <mxGeometry width="60" height="40" as="geometry" />
        </mxCell>
        <mxCell id="xO2AjzX3wB4_eJEhIPex-138" value="0" style="rounded=0;whiteSpace=wrap;html=1;" vertex="1" parent="xO2AjzX3wB4_eJEhIPex-136">
          <mxGeometry x="60" width="60" height="40" as="geometry" />
        </mxCell>
        <mxCell id="xO2AjzX3wB4_eJEhIPex-139" value="12" style="rounded=0;whiteSpace=wrap;html=1;" vertex="1" parent="xO2AjzX3wB4_eJEhIPex-136">
          <mxGeometry x="120" width="60" height="40" as="geometry" />
        </mxCell>
        <mxCell id="xO2AjzX3wB4_eJEhIPex-141" value="" style="group" vertex="1" connectable="0" parent="1">
          <mxGeometry x="900" y="2210" width="180" height="160" as="geometry" />
        </mxCell>
        <mxCell id="xO2AjzX3wB4_eJEhIPex-142" value="G" style="rounded=0;whiteSpace=wrap;html=1;" vertex="1" parent="xO2AjzX3wB4_eJEhIPex-141">
          <mxGeometry y="60" width="180" height="60" as="geometry" />
        </mxCell>
        <mxCell id="xO2AjzX3wB4_eJEhIPex-143" value="" style="group" vertex="1" connectable="0" parent="xO2AjzX3wB4_eJEhIPex-141">
          <mxGeometry width="180" height="60" as="geometry" />
        </mxCell>
        <mxCell id="xO2AjzX3wB4_eJEhIPex-144" value="13" style="rounded=0;whiteSpace=wrap;html=1;" vertex="1" parent="xO2AjzX3wB4_eJEhIPex-143">
          <mxGeometry y="20" width="60" height="40" as="geometry" />
        </mxCell>
        <mxCell id="xO2AjzX3wB4_eJEhIPex-145" value="4" style="rounded=0;whiteSpace=wrap;html=1;" vertex="1" parent="xO2AjzX3wB4_eJEhIPex-143">
          <mxGeometry x="60" y="20" width="60" height="40" as="geometry" />
        </mxCell>
        <mxCell id="xO2AjzX3wB4_eJEhIPex-146" value="16" style="rounded=0;whiteSpace=wrap;html=1;" vertex="1" parent="xO2AjzX3wB4_eJEhIPex-143">
          <mxGeometry x="120" y="20" width="60" height="40" as="geometry" />
        </mxCell>
        <mxCell id="xO2AjzX3wB4_eJEhIPex-147" value="" style="group" vertex="1" connectable="0" parent="xO2AjzX3wB4_eJEhIPex-141">
          <mxGeometry y="120" width="180" height="40" as="geometry" />
        </mxCell>
        <mxCell id="xO2AjzX3wB4_eJEhIPex-148" value="13" style="rounded=0;whiteSpace=wrap;html=1;" vertex="1" parent="xO2AjzX3wB4_eJEhIPex-147">
          <mxGeometry width="60" height="40" as="geometry" />
        </mxCell>
        <mxCell id="xO2AjzX3wB4_eJEhIPex-149" value="0" style="rounded=0;whiteSpace=wrap;html=1;" vertex="1" parent="xO2AjzX3wB4_eJEhIPex-147">
          <mxGeometry x="60" width="60" height="40" as="geometry" />
        </mxCell>
        <mxCell id="xO2AjzX3wB4_eJEhIPex-150" value="16" style="rounded=0;whiteSpace=wrap;html=1;" vertex="1" parent="xO2AjzX3wB4_eJEhIPex-147">
          <mxGeometry x="120" width="60" height="40" as="geometry" />
        </mxCell>
        <mxCell id="xO2AjzX3wB4_eJEhIPex-151" value="" style="group" vertex="1" connectable="0" parent="1">
          <mxGeometry x="1140" y="2390" width="180" height="160" as="geometry" />
        </mxCell>
        <mxCell id="xO2AjzX3wB4_eJEhIPex-152" value="H" style="rounded=0;whiteSpace=wrap;html=1;" vertex="1" parent="xO2AjzX3wB4_eJEhIPex-151">
          <mxGeometry y="60" width="180" height="60" as="geometry" />
        </mxCell>
        <mxCell id="xO2AjzX3wB4_eJEhIPex-153" value="" style="group" vertex="1" connectable="0" parent="xO2AjzX3wB4_eJEhIPex-151">
          <mxGeometry width="180" height="60" as="geometry" />
        </mxCell>
        <mxCell id="xO2AjzX3wB4_eJEhIPex-154" value="17" style="rounded=0;whiteSpace=wrap;html=1;" vertex="1" parent="xO2AjzX3wB4_eJEhIPex-153">
          <mxGeometry y="20" width="60" height="40" as="geometry" />
        </mxCell>
        <mxCell id="xO2AjzX3wB4_eJEhIPex-155" value="3" style="rounded=0;whiteSpace=wrap;html=1;" vertex="1" parent="xO2AjzX3wB4_eJEhIPex-153">
          <mxGeometry x="60" y="20" width="60" height="40" as="geometry" />
        </mxCell>
        <mxCell id="xO2AjzX3wB4_eJEhIPex-156" value="19" style="rounded=0;whiteSpace=wrap;html=1;" vertex="1" parent="xO2AjzX3wB4_eJEhIPex-153">
          <mxGeometry x="120" y="20" width="60" height="40" as="geometry" />
        </mxCell>
        <mxCell id="xO2AjzX3wB4_eJEhIPex-157" value="" style="group" vertex="1" connectable="0" parent="xO2AjzX3wB4_eJEhIPex-151">
          <mxGeometry y="120" width="180" height="40" as="geometry" />
        </mxCell>
        <mxCell id="xO2AjzX3wB4_eJEhIPex-158" value="17" style="rounded=0;whiteSpace=wrap;html=1;" vertex="1" parent="xO2AjzX3wB4_eJEhIPex-157">
          <mxGeometry width="60" height="40" as="geometry" />
        </mxCell>
        <mxCell id="xO2AjzX3wB4_eJEhIPex-159" value="0" style="rounded=0;whiteSpace=wrap;html=1;" vertex="1" parent="xO2AjzX3wB4_eJEhIPex-157">
          <mxGeometry x="60" width="60" height="40" as="geometry" />
        </mxCell>
        <mxCell id="xO2AjzX3wB4_eJEhIPex-160" value="19" style="rounded=0;whiteSpace=wrap;html=1;" vertex="1" parent="xO2AjzX3wB4_eJEhIPex-157">
          <mxGeometry x="120" width="60" height="40" as="geometry" />
        </mxCell>
        <mxCell id="xO2AjzX3wB4_eJEhIPex-161" value="" style="group" vertex="1" connectable="0" parent="1">
          <mxGeometry x="630" y="2390" width="180" height="160" as="geometry" />
        </mxCell>
        <mxCell id="xO2AjzX3wB4_eJEhIPex-162" value="E" style="rounded=0;whiteSpace=wrap;html=1;" vertex="1" parent="xO2AjzX3wB4_eJEhIPex-161">
          <mxGeometry y="60" width="180" height="60" as="geometry" />
        </mxCell>
        <mxCell id="xO2AjzX3wB4_eJEhIPex-163" value="" style="group" vertex="1" connectable="0" parent="xO2AjzX3wB4_eJEhIPex-161">
          <mxGeometry width="180" height="60" as="geometry" />
        </mxCell>
        <mxCell id="xO2AjzX3wB4_eJEhIPex-164" value="6" style="rounded=0;whiteSpace=wrap;html=1;" vertex="1" parent="xO2AjzX3wB4_eJEhIPex-163">
          <mxGeometry y="20" width="60" height="40" as="geometry" />
        </mxCell>
        <mxCell id="xO2AjzX3wB4_eJEhIPex-165" value="1" style="rounded=0;whiteSpace=wrap;html=1;" vertex="1" parent="xO2AjzX3wB4_eJEhIPex-163">
          <mxGeometry x="60" y="20" width="60" height="40" as="geometry" />
        </mxCell>
        <mxCell id="xO2AjzX3wB4_eJEhIPex-166" value="6" style="rounded=0;whiteSpace=wrap;html=1;" vertex="1" parent="xO2AjzX3wB4_eJEhIPex-163">
          <mxGeometry x="120" y="20" width="60" height="40" as="geometry" />
        </mxCell>
        <mxCell id="xO2AjzX3wB4_eJEhIPex-167" value="" style="group" vertex="1" connectable="0" parent="xO2AjzX3wB4_eJEhIPex-161">
          <mxGeometry y="120" width="180" height="40" as="geometry" />
        </mxCell>
        <mxCell id="xO2AjzX3wB4_eJEhIPex-168" value="12" style="rounded=0;whiteSpace=wrap;html=1;" vertex="1" parent="xO2AjzX3wB4_eJEhIPex-167">
          <mxGeometry width="60" height="40" as="geometry" />
        </mxCell>
        <mxCell id="xO2AjzX3wB4_eJEhIPex-169" value="7" style="rounded=0;whiteSpace=wrap;html=1;" vertex="1" parent="xO2AjzX3wB4_eJEhIPex-167">
          <mxGeometry x="60" width="60" height="40" as="geometry" />
        </mxCell>
        <mxCell id="xO2AjzX3wB4_eJEhIPex-170" value="12" style="rounded=0;whiteSpace=wrap;html=1;" vertex="1" parent="xO2AjzX3wB4_eJEhIPex-167">
          <mxGeometry x="120" width="60" height="40" as="geometry" />
        </mxCell>
        <mxCell id="xO2AjzX3wB4_eJEhIPex-171" value="" style="group" vertex="1" connectable="0" parent="1">
          <mxGeometry x="630" y="2560" width="180" height="160" as="geometry" />
        </mxCell>
        <mxCell id="xO2AjzX3wB4_eJEhIPex-172" value="F" style="rounded=0;whiteSpace=wrap;html=1;" vertex="1" parent="xO2AjzX3wB4_eJEhIPex-171">
          <mxGeometry y="60" width="180" height="60" as="geometry" />
        </mxCell>
        <mxCell id="xO2AjzX3wB4_eJEhIPex-173" value="" style="group" vertex="1" connectable="0" parent="xO2AjzX3wB4_eJEhIPex-171">
          <mxGeometry width="180" height="60" as="geometry" />
        </mxCell>
        <mxCell id="xO2AjzX3wB4_eJEhIPex-174" value="6" style="rounded=0;whiteSpace=wrap;html=1;" vertex="1" parent="xO2AjzX3wB4_eJEhIPex-173">
          <mxGeometry y="20" width="60" height="40" as="geometry" />
        </mxCell>
        <mxCell id="xO2AjzX3wB4_eJEhIPex-175" value="2" style="rounded=0;whiteSpace=wrap;html=1;" vertex="1" parent="xO2AjzX3wB4_eJEhIPex-173">
          <mxGeometry x="60" y="20" width="60" height="40" as="geometry" />
        </mxCell>
        <mxCell id="xO2AjzX3wB4_eJEhIPex-176" value="7" style="rounded=0;whiteSpace=wrap;html=1;" vertex="1" parent="xO2AjzX3wB4_eJEhIPex-173">
          <mxGeometry x="120" y="20" width="60" height="40" as="geometry" />
        </mxCell>
        <mxCell id="xO2AjzX3wB4_eJEhIPex-177" value="" style="group" vertex="1" connectable="0" parent="xO2AjzX3wB4_eJEhIPex-171">
          <mxGeometry y="120" width="180" height="40" as="geometry" />
        </mxCell>
        <mxCell id="xO2AjzX3wB4_eJEhIPex-178" value="15" style="rounded=0;whiteSpace=wrap;html=1;" vertex="1" parent="xO2AjzX3wB4_eJEhIPex-177">
          <mxGeometry width="60" height="40" as="geometry" />
        </mxCell>
        <mxCell id="xO2AjzX3wB4_eJEhIPex-179" value="7" style="rounded=0;whiteSpace=wrap;html=1;" vertex="1" parent="xO2AjzX3wB4_eJEhIPex-177">
          <mxGeometry x="60" width="60" height="40" as="geometry" />
        </mxCell>
        <mxCell id="xO2AjzX3wB4_eJEhIPex-180" value="16" style="rounded=0;whiteSpace=wrap;html=1;" vertex="1" parent="xO2AjzX3wB4_eJEhIPex-177">
          <mxGeometry x="120" width="60" height="40" as="geometry" />
        </mxCell>
        <mxCell id="xO2AjzX3wB4_eJEhIPex-181" style="edgeStyle=orthogonalEdgeStyle;rounded=0;orthogonalLoop=1;jettySize=auto;html=1;exitX=1;exitY=0.5;exitDx=0;exitDy=0;entryX=0;entryY=0.5;entryDx=0;entryDy=0;" edge="1" parent="1" source="xO2AjzX3wB4_eJEhIPex-121" target="xO2AjzX3wB4_eJEhIPex-162">
          <mxGeometry relative="1" as="geometry" />
        </mxCell>
        <mxCell id="xO2AjzX3wB4_eJEhIPex-182" style="edgeStyle=orthogonalEdgeStyle;rounded=0;orthogonalLoop=1;jettySize=auto;html=1;exitX=1;exitY=0.5;exitDx=0;exitDy=0;entryX=0;entryY=0.5;entryDx=0;entryDy=0;" edge="1" parent="1" source="xO2AjzX3wB4_eJEhIPex-121" target="xO2AjzX3wB4_eJEhIPex-172">
          <mxGeometry relative="1" as="geometry" />
        </mxCell>
        <mxCell id="xO2AjzX3wB4_eJEhIPex-183" style="edgeStyle=orthogonalEdgeStyle;rounded=0;orthogonalLoop=1;jettySize=auto;html=1;exitX=1;exitY=0.5;exitDx=0;exitDy=0;entryX=0;entryY=0.5;entryDx=0;entryDy=0;" edge="1" parent="1" source="xO2AjzX3wB4_eJEhIPex-100" target="xO2AjzX3wB4_eJEhIPex-111">
          <mxGeometry relative="1" as="geometry">
            <Array as="points">
              <mxPoint x="340" y="2460" />
              <mxPoint x="340" y="2300" />
            </Array>
          </mxGeometry>
        </mxCell>
        <mxCell id="xO2AjzX3wB4_eJEhIPex-184" style="edgeStyle=orthogonalEdgeStyle;rounded=0;orthogonalLoop=1;jettySize=auto;html=1;exitX=1;exitY=0.5;exitDx=0;exitDy=0;entryX=0;entryY=0.5;entryDx=0;entryDy=0;" edge="1" parent="1" source="xO2AjzX3wB4_eJEhIPex-100" target="xO2AjzX3wB4_eJEhIPex-121">
          <mxGeometry relative="1" as="geometry">
            <Array as="points">
              <mxPoint x="290" y="2460" />
              <mxPoint x="340" y="2460" />
              <mxPoint x="340" y="2590" />
            </Array>
          </mxGeometry>
        </mxCell>
        <mxCell id="xO2AjzX3wB4_eJEhIPex-185" style="edgeStyle=orthogonalEdgeStyle;rounded=0;orthogonalLoop=1;jettySize=auto;html=1;exitX=1;exitY=0.5;exitDx=0;exitDy=0;entryX=0;entryY=0.5;entryDx=0;entryDy=0;" edge="1" parent="1" source="xO2AjzX3wB4_eJEhIPex-111" target="xO2AjzX3wB4_eJEhIPex-131">
          <mxGeometry relative="1" as="geometry" />
        </mxCell>
        <mxCell id="xO2AjzX3wB4_eJEhIPex-210" style="edgeStyle=orthogonalEdgeStyle;rounded=0;orthogonalLoop=1;jettySize=auto;html=1;exitX=1;exitY=0.5;exitDx=0;exitDy=0;entryX=0;entryY=0.5;entryDx=0;entryDy=0;" edge="1" parent="1" source="xO2AjzX3wB4_eJEhIPex-131" target="xO2AjzX3wB4_eJEhIPex-142">
          <mxGeometry relative="1" as="geometry" />
        </mxCell>
        <mxCell id="xO2AjzX3wB4_eJEhIPex-211" style="edgeStyle=orthogonalEdgeStyle;rounded=0;orthogonalLoop=1;jettySize=auto;html=1;exitX=1;exitY=0.5;exitDx=0;exitDy=0;entryX=0;entryY=0.5;entryDx=0;entryDy=0;" edge="1" parent="1" source="xO2AjzX3wB4_eJEhIPex-162" target="xO2AjzX3wB4_eJEhIPex-142">
          <mxGeometry relative="1" as="geometry" />
        </mxCell>
        <mxCell id="xO2AjzX3wB4_eJEhIPex-212" style="edgeStyle=orthogonalEdgeStyle;rounded=0;orthogonalLoop=1;jettySize=auto;html=1;exitX=1;exitY=0.5;exitDx=0;exitDy=0;entryX=0;entryY=0.5;entryDx=0;entryDy=0;" edge="1" parent="1" source="xO2AjzX3wB4_eJEhIPex-142" target="xO2AjzX3wB4_eJEhIPex-152">
          <mxGeometry relative="1" as="geometry" />
        </mxCell>
        <mxCell id="xO2AjzX3wB4_eJEhIPex-213" style="edgeStyle=orthogonalEdgeStyle;rounded=0;orthogonalLoop=1;jettySize=auto;html=1;exitX=1;exitY=0.5;exitDx=0;exitDy=0;entryX=0;entryY=0.5;entryDx=0;entryDy=0;" edge="1" parent="1" source="xO2AjzX3wB4_eJEhIPex-172" target="xO2AjzX3wB4_eJEhIPex-152">
          <mxGeometry relative="1" as="geometry" />
        </mxCell>
        <mxCell id="xO2AjzX3wB4_eJEhIPex-215" value="Q) when the delivery date&lt;br&gt;it will take 19 day to deliver" style="rounded=1;whiteSpace=wrap;html=1;fillColor=#fff2cc;strokeColor=#d6b656;" vertex="1" parent="1">
          <mxGeometry x="620" y="2750" width="200" height="60" as="geometry" />
        </mxCell>
        <mxCell id="xO2AjzX3wB4_eJEhIPex-216" value="scheduling via PDF" style="text;html=1;strokeColor=#6c8ebf;fillColor=#dae8fc;align=center;verticalAlign=middle;whiteSpace=wrap;rounded=0;" vertex="1" parent="1">
          <mxGeometry x="670" y="2180" width="120" height="30" as="geometry" />
        </mxCell>
        <mxCell id="xO2AjzX3wB4_eJEhIPex-217" value="&lt;br&gt;Q1: By how much, is it over/under budget? &lt;br&gt;Over budget by 300k.&lt;br&gt;Q2:By how many days, is it ahead/behind the schedule? &lt;br&gt;On schedule.&lt;br&gt;Q3:By the end of the project how much will it be over/under budget? &lt;br&gt;Over budget by 500k&lt;br&gt;Q4: &lt;br&gt;CV = EV – AC = 2400 – 2700 = -300 since it’s less than zero therefore we are over budget by 300k.&lt;br&gt;SV = EV – PV = 2400 – 2400 = 0 since it’s Equal to zero therefore we are on schedule.&lt;br&gt;CPI = EV / AC = 2400 / 2700 = 0.88 since it’s less than one therefore we are over budget.&lt;br&gt;SPI = EV / PV = 2400 / 2400 = 1 Since it’s equal to one therefore we are on schedule.&lt;br&gt;EAC = BAC / CPI= 3700/ 0.88 = 4200 k." style="text;html=1;strokeColor=none;fillColor=none;align=left;verticalAlign=middle;whiteSpace=wrap;rounded=0;" vertex="1" parent="1">
          <mxGeometry x="140" y="3010" width="580" height="200" as="geometry" />
        </mxCell>
      </root>
    </mxGraphModel>
  </diagram>
</mxfile>
